<?xml version="1.0" encoding="UTF-8" standalone="no"?><svg xmlns="http://www.w3.org/2000/svg" xmlns:xlink="http://www.w3.org/1999/xlink" contentScriptType="application/ecmascript" contentStyleType="text/css" height="309px" preserveAspectRatio="none" style="width:646px;height:309px;background:#FFFFFF;" version="1.1" viewBox="0 0 646 309" width="646px" zoomAndPan="magnify"><defs><filter height="300%" id="fnx2j5a1p7s9i" width="300%" x="-1" y="-1"><feGaussianBlur result="blurOut" stdDeviation="2.0"/><feColorMatrix in="blurOut" result="blurOut2" type="matrix" values="0 0 0 0 0 0 0 0 0 0 0 0 0 0 0 0 0 0 .4 0"/><feOffset dx="4.0" dy="4.0" in="blurOut2" result="blurOut3"/><feBlend in="SourceGraphic" in2="blurOut3" mode="normal"/></filter></defs><g><line style="stroke:#A80036;stroke-width:1.0;stroke-dasharray:5.0,5.0;" x1="43" x2="43" y1="88.2969" y2="224.8281"/><line style="stroke:#A80036;stroke-width:1.0;stroke-dasharray:5.0,5.0;" x1="196" x2="196" y1="88.2969" y2="224.8281"/><line style="stroke:#A80036;stroke-width:1.0;stroke-dasharray:5.0,5.0;" x1="381" x2="381" y1="88.2969" y2="224.8281"/><line style="stroke:#A80036;stroke-width:1.0;stroke-dasharray:5.0,5.0;" x1="599" x2="599" y1="88.2969" y2="224.8281"/><text fill="#000000" font-family="sans-serif" font-size="14" lengthAdjust="spacing" textLength="70" x="5" y="84.9951">测试工程师</text><ellipse cx="43" cy="15" fill="#FEFECE" filter="url(#fnx2j5a1p7s9i)" rx="8" ry="8" style="stroke:#A80036;stroke-width:2.0;"/><path d="M43,23 L43,50 M30,31 L56,31 M43,50 L30,65 M43,50 L56,65 " fill="none" filter="url(#fnx2j5a1p7s9i)" style="stroke:#A80036;stroke-width:2.0;"/><text fill="#000000" font-family="sans-serif" font-size="14" lengthAdjust="spacing" textLength="70" x="5" y="236.8232">测试工程师</text><ellipse cx="43" cy="250.125" fill="#FEFECE" filter="url(#fnx2j5a1p7s9i)" rx="8" ry="8" style="stroke:#A80036;stroke-width:2.0;"/><path d="M43,258.125 L43,285.125 M30,266.125 L56,266.125 M43,285.125 L30,300.125 M43,285.125 L56,300.125 " fill="none" filter="url(#fnx2j5a1p7s9i)" style="stroke:#A80036;stroke-width:2.0;"/><rect fill="#FEFECE" filter="url(#fnx2j5a1p7s9i)" height="30.2969" style="stroke:#A80036;stroke-width:1.5;" width="70" x="159" y="53"/><text fill="#000000" font-family="sans-serif" font-size="14" lengthAdjust="spacing" textLength="56" x="166" y="72.9951">编程语言</text><rect fill="#FEFECE" filter="url(#fnx2j5a1p7s9i)" height="30.2969" style="stroke:#A80036;stroke-width:1.5;" width="70" x="159" y="223.8281"/><text fill="#000000" font-family="sans-serif" font-size="14" lengthAdjust="spacing" textLength="56" x="166" y="243.8232">编程语言</text><rect fill="#FEFECE" filter="url(#fnx2j5a1p7s9i)" height="30.2969" style="stroke:#A80036;stroke-width:1.5;" width="78" x="340" y="53"/><text fill="#000000" font-family="sans-serif" font-size="14" lengthAdjust="spacing" textLength="64" x="347" y="72.9951">Selenium</text><rect fill="#FEFECE" filter="url(#fnx2j5a1p7s9i)" height="30.2969" style="stroke:#A80036;stroke-width:1.5;" width="78" x="340" y="223.8281"/><text fill="#000000" font-family="sans-serif" font-size="14" lengthAdjust="spacing" textLength="64" x="347" y="243.8232">Selenium</text><rect fill="#FEFECE" filter="url(#fnx2j5a1p7s9i)" height="30.2969" style="stroke:#A80036;stroke-width:1.5;" width="70" x="562" y="53"/><text fill="#000000" font-family="sans-serif" font-size="14" lengthAdjust="spacing" textLength="56" x="569" y="72.9951">前端页面</text><rect fill="#FEFECE" filter="url(#fnx2j5a1p7s9i)" height="30.2969" style="stroke:#A80036;stroke-width:1.5;" width="70" x="562" y="223.8281"/><text fill="#000000" font-family="sans-serif" font-size="14" lengthAdjust="spacing" textLength="56" x="569" y="243.8232">前端页面</text><polygon fill="#A80036" points="184,115.4297,194,119.4297,184,123.4297,188,119.4297" style="stroke:#A80036;stroke-width:1.0;"/><line style="stroke:#A80036;stroke-width:1.0;" x1="43" x2="190" y1="119.4297" y2="119.4297"/><text fill="#000000" font-family="sans-serif" font-size="13" lengthAdjust="spacing" textLength="129" x="50" y="114.3638">1 编写自动化测试脚本</text><polygon fill="#A80036" points="369,144.5625,379,148.5625,369,152.5625,373,148.5625" style="stroke:#A80036;stroke-width:1.0;"/><line style="stroke:#A80036;stroke-width:1.0;" x1="196" x2="375" y1="148.5625" y2="148.5625"/><text fill="#000000" font-family="sans-serif" font-size="13" lengthAdjust="spacing" textLength="161" x="203" y="143.4966">2 调用selenium执行自动化</text><polygon fill="#A80036" points="587,173.6953,597,177.6953,587,181.6953,591,177.6953" style="stroke:#A80036;stroke-width:1.0;"/><line style="stroke:#A80036;stroke-width:1.0;" x1="381" x2="593" y1="177.6953" y2="177.6953"/><text fill="#000000" font-family="sans-serif" font-size="13" lengthAdjust="spacing" textLength="194" x="388" y="172.6294">3 对页面对象执行动作与获取数据</text><polygon fill="#A80036" points="207,202.8281,197,206.8281,207,210.8281,203,206.8281" style="stroke:#A80036;stroke-width:1.0;"/><line style="stroke:#A80036;stroke-width:1.0;" x1="201" x2="598" y1="206.8281" y2="206.8281"/><text fill="#000000" font-family="sans-serif" font-size="13" lengthAdjust="spacing" textLength="259" x="213" y="201.7622">4 拿到系统的响应结果，与预期结果进行对比</text><!--MD5=[7cc65e3cca75033a8c69e25e94daf47c]
@startuml
actor 测试工程师
测试工程师 -> 编程语言: 1 编写自动化测试脚本
编程语言 -> Selenium: 2 调用selenium执行自动化
Selenium -> 前端页面: 3 对页面对象执行动作与获取数据
前端页面 -> 编程语言: 4 拿到系统的响应结果，与预期结果进行对比
@enduml

PlantUML version 1.2021.16(Wed Dec 08 17:25:22 UTC 2021)
(GPL source distribution)
Java Runtime: OpenJDK Runtime Environment
JVM: OpenJDK 64-Bit Server VM
Default Encoding: UTF-8
Language: en
Country: null
--></g></svg>