<?xml version="1.0" encoding="UTF-8" standalone="no"?><svg xmlns="http://www.w3.org/2000/svg" xmlns:xlink="http://www.w3.org/1999/xlink" contentScriptType="application/ecmascript" contentStyleType="text/css" height="262px" preserveAspectRatio="none" style="width:415px;height:262px;background:#FFFFFF;" version="1.1" viewBox="0 0 415 262" width="415px" zoomAndPan="magnify"><defs><filter height="300%" id="f1s41dfsea8oyb" width="300%" x="-1" y="-1"><feGaussianBlur result="blurOut" stdDeviation="2.0"/><feColorMatrix in="blurOut" result="blurOut2" type="matrix" values="0 0 0 0 0 0 0 0 0 0 0 0 0 0 0 0 0 0 .4 0"/><feOffset dx="4.0" dy="4.0" in="blurOut2" result="blurOut3"/><feBlend in="SourceGraphic" in2="blurOut3" mode="normal"/></filter></defs><g><line style="stroke:#A80036;stroke-width:1.0;stroke-dasharray:5.0,5.0;" x1="63" x2="63" y1="40.2969" y2="218.9609"/><line style="stroke:#A80036;stroke-width:1.0;stroke-dasharray:5.0,5.0;" x1="175" x2="175" y1="40.2969" y2="218.9609"/><line style="stroke:#A80036;stroke-width:1.0;stroke-dasharray:5.0,5.0;" x1="354" x2="354" y1="40.2969" y2="218.9609"/><rect fill="#FEFECE" filter="url(#f1s41dfsea8oyb)" height="30.2969" style="stroke:#A80036;stroke-width:1.5;" width="112" x="5" y="5"/><text fill="#000000" font-family="sans-serif" font-size="14" lengthAdjust="spacing" textLength="98" x="12" y="24.9951">企业微信主页面</text><rect fill="#FEFECE" filter="url(#f1s41dfsea8oyb)" height="30.2969" style="stroke:#A80036;stroke-width:1.5;" width="112" x="5" y="217.9609"/><text fill="#000000" font-family="sans-serif" font-size="14" lengthAdjust="spacing" textLength="98" x="12" y="237.9561">企业微信主页面</text><rect fill="#FEFECE" filter="url(#f1s41dfsea8oyb)" height="30.2969" style="stroke:#A80036;stroke-width:1.5;" width="84" x="131" y="5"/><text fill="#000000" font-family="sans-serif" font-size="14" lengthAdjust="spacing" textLength="70" x="138" y="24.9951">通讯录页面</text><rect fill="#FEFECE" filter="url(#f1s41dfsea8oyb)" height="30.2969" style="stroke:#A80036;stroke-width:1.5;" width="84" x="131" y="217.9609"/><text fill="#000000" font-family="sans-serif" font-size="14" lengthAdjust="spacing" textLength="70" x="138" y="237.9561">通讯录页面</text><rect fill="#FEFECE" filter="url(#f1s41dfsea8oyb)" height="30.2969" style="stroke:#A80036;stroke-width:1.5;" width="98" x="303" y="5"/><text fill="#000000" font-family="sans-serif" font-size="14" lengthAdjust="spacing" textLength="84" x="310" y="24.9951">添加成员页面</text><rect fill="#FEFECE" filter="url(#f1s41dfsea8oyb)" height="30.2969" style="stroke:#A80036;stroke-width:1.5;" width="98" x="303" y="217.9609"/><text fill="#000000" font-family="sans-serif" font-size="14" lengthAdjust="spacing" textLength="84" x="310" y="237.9561">添加成员页面</text><polygon fill="#A80036" points="163,67.4297,173,71.4297,163,75.4297,167,71.4297" style="stroke:#A80036;stroke-width:1.0;"/><line style="stroke:#A80036;stroke-width:1.0;" x1="63" x2="169" y1="71.4297" y2="71.4297"/><text fill="#000000" font-family="sans-serif" font-size="13" lengthAdjust="spacing" textLength="77" x="70" y="66.3638">1.点击通讯录</text><polygon fill="#A80036" points="342,96.5625,352,100.5625,342,104.5625,346,100.5625" style="stroke:#A80036;stroke-width:1.0;"/><line style="stroke:#A80036;stroke-width:1.0;" x1="63" x2="348" y1="100.5625" y2="100.5625"/><text fill="#000000" font-family="sans-serif" font-size="13" lengthAdjust="spacing" textLength="90" x="70" y="95.4966">2.点击添加成员</text><polygon fill="#A80036" points="342,125.6953,352,129.6953,342,133.6953,346,129.6953" style="stroke:#A80036;stroke-width:1.0;"/><line style="stroke:#A80036;stroke-width:1.0;" x1="175" x2="348" y1="129.6953" y2="129.6953"/><text fill="#000000" font-family="sans-serif" font-size="13" lengthAdjust="spacing" textLength="90" x="182" y="124.6294">3.点击添加成员</text><polygon fill="#A80036" points="186,154.8281,176,158.8281,186,162.8281,182,158.8281" style="stroke:#A80036;stroke-width:1.0;"/><line style="stroke:#A80036;stroke-width:1.0;" x1="180" x2="353" y1="158.8281" y2="158.8281"/><text fill="#000000" font-family="sans-serif" font-size="13" lengthAdjust="spacing" textLength="155" x="192" y="153.7622">4.填写成员资料，点击保存</text><line style="stroke:#A80036;stroke-width:1.0;" x1="175" x2="217" y1="187.9609" y2="187.9609"/><line style="stroke:#A80036;stroke-width:1.0;" x1="217" x2="217" y1="187.9609" y2="200.9609"/><line style="stroke:#A80036;stroke-width:1.0;" x1="176" x2="217" y1="200.9609" y2="200.9609"/><polygon fill="#A80036" points="186,196.9609,176,200.9609,186,204.9609,182,200.9609" style="stroke:#A80036;stroke-width:1.0;"/><text fill="#000000" font-family="sans-serif" font-size="13" lengthAdjust="spacing" textLength="116" x="182" y="182.895">5.获取成员列表断言</text><!--MD5=[dee6bfe2d0d1ea03814bb08274ab2757]
@startuml
企业微信主页面 -> 通讯录页面 : 1.点击通讯录
企业微信主页面 -> 添加成员页面: 2.点击添加成员
通讯录页面 -> 添加成员页面: 3.点击添加成员
添加成员页面 -> 通讯录页面: 4.填写成员资料，点击保存
通讯录页面 -> 通讯录页面: 5.获取成员列表断言
@enduml

PlantUML version 1.2021.16(Wed Dec 08 17:25:22 UTC 2021)
(GPL source distribution)
Java Runtime: OpenJDK Runtime Environment
JVM: OpenJDK 64-Bit Server VM
Default Encoding: UTF-8
Language: en
Country: null
--></g></svg>